<?xml version="1.0" encoding="utf-8"?>
<!-- Generator: Adobe Illustrator 26.5.0, SVG Export Plug-In . SVG Version: 6.00 Build 0)  -->
<svg version="1.1" id="Layer_1" xmlns="http://www.w3.org/2000/svg" xmlns:xlink="http://www.w3.org/1999/xlink" x="0px" y="0px"
	 viewBox="0 0 245.72 163.17" style="enable-background:new 0 0 245.72 163.17;" xml:space="preserve">
<style type="text/css">
	.st0{fill:none;stroke:#000000;stroke-width:2;stroke-miterlimit:10;}
	.st1{fill:none;stroke:#000000;stroke-miterlimit:10;}
	.st2{fill:#006838;}
	.st3{fill:none;}
</style>
<rect x="12.9" y="6.87" class="st0" width="220.15" height="132.09"/>
<rect x="6.42" y="138.96" class="st0" width="233.12" height="17.47"/>
<rect x="22.59" y="16.44" class="st0" width="200.77" height="113.58"/>
<rect x="102.32" y="138.96" class="st1" width="41.31" height="6.75"/>
<g>
	<g>
		<path d="M29.34,38.59v-1.35l7.88-5.33v1.69l-6.34,4.27v0.08l6.34,4.27v1.69L29.34,38.59z"/>
		<path d="M48.51,29.93h1.56l-6.93,18.39h-1.56L48.51,29.93z"/>
		<path d="M54.01,31.07h3.42c4.16,0,6.42,2.47,6.42,6.87c0,4.42-2.26,7-6.34,7h-3.51V31.07z M57.3,43.48c3.15,0,4.71-2.03,4.71-5.54
			c0-3.49-1.56-5.41-4.71-5.41h-1.52v10.95H57.3z"/>
		<path d="M65.97,38c0-4.48,2.56-7.19,6.15-7.19c1.84,0,3.04,0.87,3.83,1.69l-1.01,1.12c-0.66-0.7-1.48-1.25-2.81-1.25
			c-2.6,0-4.29,2.13-4.29,5.58c0,3.49,1.54,5.66,4.25,5.66c0.97,0,1.88-0.3,2.39-0.8v-3.61h-2.75v-1.46h4.4v5.83
			c-0.87,0.89-2.35,1.61-4.14,1.61C68.48,45.19,65.97,42.52,65.97,38z"/>
		<path d="M79.05,31.07h2.16l1.94,5.92l0.68,2.24h0.08l0.66-2.24l1.97-5.92h2.16v13.86H87V38c0-1.35,0.21-3.72,0.3-4.9h-0.06
			l-0.78,2.71l-1.99,5.45h-1.27l-1.94-5.45l-0.8-2.71H80.4c0.13,1.18,0.3,3.55,0.3,4.9v6.93h-1.65V31.07z"/>
		<path d="M104.43,43.9c4.56-4.04,7.06-6.4,7.06-8.64c0-1.54-0.93-2.62-2.92-2.62c-1.27,0-2.37,0.72-3.23,1.61l-1.01-0.99
			c1.23-1.23,2.56-2.05,4.46-2.05c2.71,0,4.4,1.58,4.4,3.97c0,2.54-2.54,5.05-6.19,8.37c0.85-0.06,1.71-0.11,2.51-0.11h4.42v1.5
			h-9.49V43.9z"/>
		<path d="M124.81,32.97h-7.76v-1.52h9.76v1.08c-3.57,4.08-4.44,7.12-4.65,12.41h-1.84C120.56,39.84,121.74,36.73,124.81,32.97z"/>
		<path d="M136.03,35.66c0.02-0.74,0.06-1.65,0.11-2.39h-0.11c-0.44,0.65-0.93,1.31-1.37,1.97l-3.63,4.56h8.75v1.42h-10.69v-1.16
			l6.72-8.6h1.88v13.48h-1.65V35.66z"/>
		<path d="M142.43,38.15c0-4.52,1.84-6.95,4.84-6.95s4.84,2.43,4.84,6.95c0,4.48-1.84,7.04-4.84,7.04S142.43,42.63,142.43,38.15z
			 M150.49,38.15c0-3.87-1.33-5.54-3.21-5.54s-3.21,1.67-3.21,5.54c0,3.87,1.33,5.62,3.21,5.62S150.49,42.02,150.49,38.15z
			 M145.96,38c0-0.87,0.61-1.4,1.31-1.4c0.7,0,1.31,0.53,1.31,1.4c0,0.89-0.61,1.42-1.31,1.42C146.58,39.42,145.96,38.89,145.96,38z
			"/>
		<path d="M155.88,42.23l6.34-4.27v-0.08l-6.34-4.27v-1.69l7.88,5.33v1.35l-7.88,5.33V42.23z"/>
	</g>
</g>
<g>
	<g>
		<path d="M156.18,55.21h8.52v1.5h-6.74v4.67h5.71v1.5h-5.71v6.19h-1.78V55.21z"/>
		<path d="M167.74,66.41c0-2.3,2.16-3.42,7.46-3.85c-0.06-1.39-0.74-2.58-2.73-2.58c-1.33,0-2.64,0.63-3.59,1.23l-0.7-1.18
			c1.06-0.68,2.79-1.48,4.59-1.48c2.81,0,4.18,1.67,4.18,4.23v6.3h-1.46l-0.15-1.4h-0.06c-1.12,0.89-2.6,1.65-4.04,1.65
			C169.32,69.33,167.74,68.25,167.74,66.41z M175.2,66.39v-2.66c-4.4,0.34-5.73,1.2-5.73,2.56c0,1.16,1.06,1.63,2.24,1.63
			C172.87,67.91,174.01,67.36,175.2,66.39z"/>
		<path d="M183.93,65.63V55.44h-3.63v-1.42h5.39v11.73c0,1.48,0.8,2.11,2.03,2.11c0.59,0,1.23-0.15,1.92-0.46l0.44,1.31
			c-0.95,0.4-1.63,0.61-2.75,0.61C185.13,69.33,183.93,68.06,183.93,65.63z"/>
		<path d="M196.61,65.63V55.44h-3.63v-1.42h5.39v11.73c0,1.48,0.8,2.11,2.03,2.11c0.59,0,1.23-0.15,1.92-0.46l0.44,1.31
			c-0.95,0.4-1.63,0.61-2.75,0.61C197.81,69.33,196.61,68.06,196.61,65.63z"/>
		<path d="M209.48,69.47c0-1.54,0.21-2.66,0.21-4.08c0-0.82-0.57-1.63-3.06-1.65v-1.1c2.49-0.02,3.06-0.82,3.06-1.65
			c0-1.33-0.21-2.62-0.21-4.08c0-2.18,1.27-2.81,3.91-2.81h1.31v0.99h-1.1c-2.16,0-2.62,0.55-2.62,1.92c0,1.2,0.13,2.51,0.13,3.83
			c0,1.37-0.46,2.05-1.92,2.3v0.08c1.46,0.25,1.92,0.93,1.92,2.3c0,1.44-0.13,2.54-0.13,3.83c0,1.37,0.46,1.92,2.62,1.92h1.1v0.99
			h-1.31C210.75,72.28,209.48,71.65,209.48,69.47z"/>
		<path d="M154.91,93.4c4.56-4.04,7.06-6.4,7.06-8.64c0-1.54-0.93-2.62-2.92-2.62c-1.27,0-2.37,0.72-3.23,1.61l-1.01-0.99
			c1.23-1.23,2.56-2.05,4.46-2.05c2.71,0,4.4,1.58,4.4,3.97c0,2.54-2.54,5.05-6.19,8.37c0.85-0.06,1.71-0.11,2.51-0.11h4.42v1.5
			h-9.49V93.4z"/>
		<path d="M167.55,87.65c0-4.52,1.84-6.95,4.84-6.95s4.84,2.43,4.84,6.95c0,4.48-1.84,7.04-4.84,7.04S167.55,92.13,167.55,87.65z
			 M175.6,87.65c0-3.87-1.33-5.54-3.21-5.54s-3.21,1.67-3.21,5.54c0,3.87,1.33,5.62,3.21,5.62S175.6,91.52,175.6,87.65z
			 M171.08,87.5c0-0.87,0.61-1.4,1.31-1.4c0.7,0,1.31,0.53,1.31,1.4c0,0.89-0.61,1.42-1.31,1.42
			C171.69,88.92,171.08,88.39,171.08,87.5z"/>
		<path d="M180.27,93.4c4.56-4.04,7.06-6.4,7.06-8.64c0-1.54-0.93-2.62-2.92-2.62c-1.27,0-2.37,0.72-3.23,1.61l-1.01-0.99
			c1.23-1.23,2.56-2.05,4.46-2.05c2.71,0,4.4,1.58,4.4,3.97c0,2.54-2.54,5.05-6.19,8.37c0.85-0.06,1.71-0.11,2.51-0.11h4.42v1.5
			h-9.49V93.4z"/>
		<path d="M192.95,93.4c4.56-4.04,7.06-6.4,7.06-8.64c0-1.54-0.93-2.62-2.92-2.62c-1.27,0-2.37,0.72-3.23,1.61l-1.01-0.99
			c1.23-1.23,2.56-2.05,4.46-2.05c2.71,0,4.4,1.58,4.4,3.97c0,2.54-2.54,5.05-6.19,8.37c0.85-0.06,1.71-0.11,2.51-0.11h4.42v1.5
			h-9.49V93.4z"/>
		<path d="M155.46,122.01h1.08c2.16,0,2.64-0.55,2.64-1.92c0-1.29-0.13-2.39-0.13-3.83c0-1.37,0.44-2.05,1.9-2.3v-0.08
			c-1.46-0.25-1.9-0.93-1.9-2.3c0-1.31,0.13-2.62,0.13-3.83c0-1.37-0.49-1.92-2.64-1.92h-1.08v-0.99h1.29
			c2.66,0,3.89,0.63,3.89,2.81c0,1.46-0.19,2.75-0.19,4.08c0,0.82,0.57,1.63,3.06,1.65v1.1c-2.49,0.02-3.06,0.82-3.06,1.65
			c0,1.42,0.19,2.54,0.19,4.08c0,2.18-1.23,2.81-3.89,2.81h-1.29V122.01z"/>
	</g>
</g>
<g>
	<g>
		<path class="st2" d="M46.05,91.56V70h4.49v21.67c0,7.13,3.12,9.72,7.24,9.72c4.17,0,7.34-2.59,7.34-9.72V70h4.28v21.56
			c0,9.93-4.86,13.74-11.62,13.74C50.96,105.3,46.05,101.5,46.05,91.56z"/>
		<path class="st2" d="M75.79,70h4.76l5.55,18.71c1.22,4.07,2.06,7.4,3.33,11.41h0.21c1.27-4.02,2.17-7.34,3.33-11.41L98.51,70h4.54
			l-10.99,34.66h-5.18L75.79,70z"/>
		<path class="st2" d="M109.45,91.56V70h4.49v21.67c0,7.13,3.12,9.72,7.24,9.72c4.17,0,7.34-2.59,7.34-9.72V70h4.28v21.56
			c0,9.93-4.86,13.74-11.63,13.74C114.36,105.3,109.45,101.5,109.45,91.56z"/>
	</g>
</g>
<rect x="0.36" y="0.24" class="st3" width="245" height="162.69"/>
</svg>
