<?xml version="1.0" encoding="utf-8"?>
<!-- Generator: Adobe Illustrator 26.5.0, SVG Export Plug-In . SVG Version: 6.00 Build 0)  -->
<svg version="1.1" id="Layer_1" xmlns="http://www.w3.org/2000/svg" xmlns:xlink="http://www.w3.org/1999/xlink" x="0px" y="0px"
	 viewBox="0 0 245.72 163.17" style="enable-background:new 0 0 245.72 163.17;" xml:space="preserve">
<style type="text/css">
	.st0{fill:#FFFFFF;stroke:#000000;stroke-width:2;stroke-miterlimit:10;}
	.st1{fill:none;stroke:#000000;stroke-miterlimit:10;}
	.st2{fill:#006838;}
	.st3{fill:none;}
</style>
<rect x="12.57" y="6.65" class="st0" width="220.8" height="132.48"/>
<rect x="6.07" y="139.13" class="st0" width="233.8" height="17.52"/>
<rect x="22.29" y="16.25" class="st0" width="201.36" height="113.92"/>
<rect x="102.26" y="139.13" class="st1" width="41.43" height="6.77"/>
<g>
	<g>
		<path d="M29.07,38.47v-1.36l7.91-5.34v1.7l-6.36,4.28v0.08l6.36,4.28v1.7L29.07,38.47z"/>
		<path d="M48.29,29.78h1.57l-6.95,18.44h-1.57L48.29,29.78z"/>
		<path d="M53.8,30.92h3.43c4.18,0,6.44,2.48,6.44,6.89c0,4.43-2.27,7.02-6.36,7.02H53.8V30.92z M57.11,43.36
			c3.16,0,4.73-2.03,4.73-5.55c0-3.5-1.57-5.43-4.73-5.43h-1.53v10.98H57.11z"/>
		<path d="M65.8,37.87c0-4.49,2.56-7.21,6.17-7.21c1.84,0,3.05,0.87,3.84,1.7l-1.02,1.12c-0.66-0.7-1.48-1.25-2.82-1.25
			c-2.61,0-4.3,2.14-4.3,5.6c0,3.5,1.55,5.68,4.26,5.68c0.98,0,1.89-0.3,2.4-0.81v-3.62h-2.76v-1.46h4.41v5.85
			c-0.87,0.89-2.35,1.61-4.15,1.61C68.32,45.08,65.8,42.41,65.8,37.87z"/>
		<path d="M78.92,30.92h2.16l1.95,5.93l0.68,2.25h0.08l0.66-2.25l1.97-5.93h2.16v13.9h-1.7v-6.95c0-1.36,0.21-3.73,0.3-4.92h-0.06
			l-0.78,2.71l-1.99,5.47h-1.27l-1.95-5.47l-0.81-2.71h-0.04c0.13,1.19,0.3,3.56,0.3,4.92v6.95h-1.65V30.92z"/>
		<path d="M104.38,43.79c4.58-4.05,7.08-6.42,7.08-8.67c0-1.55-0.93-2.63-2.92-2.63c-1.27,0-2.37,0.72-3.24,1.61l-1.02-1
			c1.23-1.23,2.56-2.06,4.47-2.06c2.71,0,4.41,1.59,4.41,3.98c0,2.54-2.54,5.07-6.21,8.39c0.85-0.06,1.72-0.11,2.52-0.11h4.43v1.5
			h-9.52V43.79z"/>
		<path d="M124.81,32.83h-7.78V31.3h9.79v1.08c-3.58,4.09-4.45,7.14-4.66,12.44h-1.84C120.55,39.72,121.74,36.6,124.81,32.83z"/>
		<path d="M136.07,35.52c0.02-0.74,0.06-1.65,0.11-2.4h-0.11c-0.45,0.66-0.93,1.31-1.38,1.97l-3.65,4.58h8.77v1.42H129.1v-1.17
			l6.74-8.63h1.89v13.52h-1.65V35.52z"/>
		<path d="M142.49,38.02c0-4.54,1.84-6.97,4.85-6.97s4.85,2.44,4.85,6.97c0,4.49-1.84,7.06-4.85,7.06S142.49,42.51,142.49,38.02z
			 M150.57,38.02c0-3.88-1.34-5.55-3.22-5.55s-3.22,1.67-3.22,5.55c0,3.88,1.34,5.64,3.22,5.64S150.57,41.9,150.57,38.02z
			 M146.03,37.87c0-0.87,0.61-1.4,1.31-1.4c0.7,0,1.31,0.53,1.31,1.4c0,0.89-0.61,1.42-1.31,1.42
			C146.65,39.29,146.03,38.76,146.03,37.87z"/>
		<path d="M155.97,42.11l6.36-4.28v-0.08l-6.36-4.28v-1.7l7.91,5.34v1.36l-7.91,5.34V42.11z"/>
	</g>
</g>
<g>
	<g>
		<path d="M156.28,55.13h8.54v1.5h-6.76v4.68h5.72v1.5h-5.72v6.21h-1.78V55.13z"/>
		<path d="M167.87,66.36c0-2.31,2.16-3.43,7.48-3.86c-0.06-1.4-0.74-2.59-2.73-2.59c-1.34,0-2.65,0.64-3.6,1.23l-0.7-1.19
			c1.06-0.68,2.8-1.48,4.6-1.48c2.82,0,4.2,1.67,4.2,4.24v6.32h-1.46l-0.15-1.4h-0.06c-1.12,0.89-2.61,1.65-4.05,1.65
			C169.46,69.29,167.87,68.21,167.87,66.36z M175.35,66.34v-2.67c-4.41,0.34-5.74,1.21-5.74,2.56c0,1.17,1.06,1.63,2.25,1.63
			C173.02,67.87,174.17,67.32,175.35,66.34z"/>
		<path d="M184.11,65.58V55.36h-3.65v-1.42h5.4v11.76c0,1.48,0.81,2.12,2.03,2.12c0.59,0,1.23-0.15,1.93-0.47l0.44,1.31
			c-0.95,0.4-1.63,0.61-2.76,0.61C185.32,69.29,184.11,68.02,184.11,65.58z"/>
		<path d="M196.83,65.58V55.36h-3.65v-1.42h5.4v11.76c0,1.48,0.81,2.12,2.03,2.12c0.59,0,1.23-0.15,1.93-0.47l0.44,1.31
			c-0.95,0.4-1.63,0.61-2.76,0.61C198.03,69.29,196.83,68.02,196.83,65.58z"/>
		<path d="M209.73,69.44c0-1.55,0.21-2.67,0.21-4.09c0-0.83-0.57-1.63-3.07-1.65v-1.1c2.5-0.02,3.07-0.83,3.07-1.65
			c0-1.34-0.21-2.63-0.21-4.09c0-2.18,1.27-2.82,3.92-2.82h1.31v1h-1.1c-2.16,0-2.63,0.55-2.63,1.93c0,1.21,0.13,2.52,0.13,3.84
			c0,1.38-0.47,2.06-1.93,2.31v0.08c1.46,0.25,1.93,0.93,1.93,2.31c0,1.44-0.13,2.54-0.13,3.84c0,1.38,0.47,1.93,2.63,1.93h1.1v1
			h-1.31C211.01,72.26,209.73,71.62,209.73,69.44z"/>
		<path d="M155,93.43c4.58-4.05,7.08-6.42,7.08-8.67c0-1.55-0.93-2.63-2.92-2.63c-1.27,0-2.37,0.72-3.24,1.61l-1.02-1
			c1.23-1.23,2.56-2.06,4.47-2.06c2.71,0,4.41,1.59,4.41,3.98c0,2.54-2.54,5.07-6.21,8.39c0.85-0.06,1.72-0.11,2.52-0.11h4.43v1.5
			H155V93.43z"/>
		<path d="M167.68,87.67c0-4.54,1.84-6.97,4.85-6.97s4.85,2.44,4.85,6.97c0,4.49-1.84,7.06-4.85,7.06S167.68,92.16,167.68,87.67z
			 M175.76,87.67c0-3.88-1.34-5.55-3.22-5.55s-3.22,1.67-3.22,5.55c0,3.88,1.34,5.64,3.22,5.64S175.76,91.55,175.76,87.67z
			 M171.22,87.52c0-0.87,0.61-1.4,1.31-1.4c0.7,0,1.31,0.53,1.31,1.4c0,0.89-0.61,1.42-1.31,1.42
			C171.83,88.94,171.22,88.41,171.22,87.52z"/>
		<path d="M180.44,93.43c4.58-4.05,7.08-6.42,7.08-8.67c0-1.55-0.93-2.63-2.92-2.63c-1.27,0-2.37,0.72-3.24,1.61l-1.02-1
			c1.23-1.23,2.56-2.06,4.47-2.06c2.71,0,4.41,1.59,4.41,3.98c0,2.54-2.54,5.07-6.21,8.39c0.85-0.06,1.72-0.11,2.52-0.11h4.43v1.5
			h-9.52V93.43z"/>
		<path d="M193.16,93.43c4.58-4.05,7.08-6.42,7.08-8.67c0-1.55-0.93-2.63-2.92-2.63c-1.27,0-2.37,0.72-3.24,1.61l-1.02-1
			c1.23-1.23,2.56-2.06,4.47-2.06c2.71,0,4.41,1.59,4.41,3.98c0,2.54-2.54,5.07-6.21,8.39c0.85-0.06,1.72-0.11,2.52-0.11h4.43v1.5
			h-9.52V93.43z"/>
		<path d="M155.56,122.13h1.08c2.16,0,2.65-0.55,2.65-1.93c0-1.29-0.13-2.4-0.13-3.84c0-1.38,0.45-2.06,1.91-2.31v-0.08
			c-1.46-0.25-1.91-0.93-1.91-2.31c0-1.31,0.13-2.63,0.13-3.84c0-1.38-0.49-1.93-2.65-1.93h-1.08v-1h1.29c2.67,0,3.9,0.64,3.9,2.82
			c0,1.46-0.19,2.76-0.19,4.09c0,0.83,0.57,1.63,3.07,1.65v1.1c-2.5,0.02-3.07,0.83-3.07,1.65c0,1.42,0.19,2.54,0.19,4.09
			c0,2.18-1.23,2.82-3.9,2.82h-1.29V122.13z"/>
	</g>
</g>
<g>
	<g>
		<path class="st2" d="M45.82,91.59V69.97h4.5V91.7c0,7.15,3.13,9.75,7.26,9.75c4.19,0,7.37-2.6,7.37-9.75V69.97h4.29v21.62
			c0,9.96-4.88,13.78-11.66,13.78C50.75,105.37,45.82,101.56,45.82,91.59z"/>
		<path class="st2" d="M75.65,69.97h4.77l5.56,18.76c1.22,4.08,2.07,7.42,3.34,11.45h0.21c1.27-4.03,2.17-7.37,3.34-11.45
			l5.56-18.76H103l-11.02,34.76h-5.19L75.65,69.97z"/>
		<path class="st2" d="M109.41,91.59V69.97h4.5V91.7c0,7.15,3.13,9.75,7.26,9.75c4.19,0,7.37-2.6,7.37-9.75V69.97h4.29v21.62
			c0,9.96-4.88,13.78-11.66,13.78C114.34,105.37,109.41,101.56,109.41,91.59z"/>
	</g>
</g>
<rect class="st3" width="245.72" height="163.17"/>
</svg>
