<?xml version="1.0" encoding="utf-8"?>
<svg version="1.1" id="Layer_1" xmlns="http://www.w3.org/2000/svg" xmlns:xlink="http://www.w3.org/1999/xlink" x="0px" y="0px"
	 viewBox="0 0 22 14.4" style="enable-background:new 0 0 22 14.4;" xml:space="preserve">
<style type="text/css">
	.st0{stroke:#FFFFFF;stroke-miterlimit:10;}
	.st1{fill:#FFFFFF;}
</style>
<path d="M17.7,11H4.3C2,11,0,9,0,6.6V4.4C0,2,2,0,4.3,0h13.3C20,0,22,2,22,4.4v2.3C22,9.1,20,11,17.7,11z"/>
<circle class="st0" cx="6.9" cy="11.6" r="2.4"/>
<circle class="st0" cx="15.3" cy="11.6" r="2.4"/>
<path class="st1" d="M6.4,6.6H3.5c-0.5,0-0.9-0.4-0.9-0.9V2.7c0-0.5,0.4-0.9,0.9-0.9h2.9c0.5,0,0.9,0.4,0.9,0.9v2.9
	C7.3,6.1,6.9,6.6,6.4,6.6z"/>
<path class="st1" d="M12.4,6.6H9.5C9,6.6,8.6,6.1,8.6,5.6V2.7c0-0.5,0.4-0.9,0.9-0.9h2.9c0.5,0,0.9,0.4,0.9,0.9v2.9
	C13.4,6.1,12.9,6.6,12.4,6.6z"/>
<path class="st1" d="M19.5,7.5h-3.9c-0.5,0-0.9-0.4-0.9-0.9V2.7c0-0.5,0.4-0.9,0.9-0.9h3.9c0.5,0,0.9,0.4,0.9,0.9v3.9
	C20.4,7.1,20,7.5,19.5,7.5z"/>
</svg>
